Coordinates
version=1
nRows=11
nColumns=40
inDegrees=yes

Units are S.I. units (second, meters, Newtons, ...)
Angles are in degrees.

endheader
time	pelvis_tilt	pelvis_list	pelvis_rotation	pelvis_tx	pelvis_ty	pelvis_tz	hip_flexion_r	hip_adduction_r	hip_rotation_r	knee_angle_r	knee_angle_r_beta	ankle_angle_r	subtalar_angle_r	mtp_angle_r	hip_flexion_l	hip_adduction_l	hip_rotation_l	knee_angle_l	knee_angle_l_beta	ankle_angle_l	subtalar_angle_l	mtp_angle_l	lumbar_extension	lumbar_bending	lumbar_rotation	arm_flex_r	arm_add_r	arm_rot_r	elbow_flex_r	pro_sup_r	wrist_flex_r	wrist_dev_r	arm_flex_l	arm_add_l	arm_rot_l	elbow_flex_l	pro_sup_l	wrist_flex_l	wrist_dev_l
     45.11114286	     -3.63286090	     -4.12010294	     -1.09053341	      1.08901067	      0.91731458	      0.44142137	     29.52825365	     -1.21465717	    -14.25224414	     16.21677630	     16.21677630	      2.32821545	     -0.36365133	      8.33678303	     -1.34414031	     -5.49313258	    -13.02302264	     13.70130609	     13.70130609	     18.40803090	     -8.49977483	     -9.60862142	     -8.87764893	      7.52489295	      1.93568333	    -12.53557769	    -13.85098808	     -9.92868900	     19.24216151	     47.65108174	      0.00000000	      0.00000000	     29.26546689	    -19.18761790	     -2.71275212	     86.95701562	     47.55592753	      0.00000000	      0.00000000
     45.12228571	     -3.82826906	     -4.45657398	     -0.74228721	      1.09070171	      0.91455354	      0.44330819	     29.31460004	     -0.77816323	    -15.03609300	     16.17084507	     16.17084507	      1.91942458	     -0.83899400	      8.03024167	     -1.55116933	     -6.12790612	    -12.76006327	     14.30824225	     14.30824225	     19.21899822	     -8.39716844	     -9.53024814	     -8.43576847	      7.84115048	      1.99108450	    -14.32317744	    -13.70411815	     -9.94513830	     19.21388883	     47.62234306	      0.00000000	      0.00000000	     29.84518211	    -18.87371794	     -3.09644400	     88.81362460	     47.63116480	      0.00000000	      0.00000000
     45.13342857	     -3.82498572	     -4.55162453	     -0.68946774	      1.09321383	      0.91238350	      0.44573995	     28.92846898	     -0.43458043	    -15.20343691	     16.43712281	     16.43712281	      0.79883894	     -1.87568461	      5.19322240	     -2.18694993	     -6.52539310	    -13.18453810	     14.78441160	     14.78441160	     20.64571822	     -7.25075775	     -7.83878771	     -8.22861713	      7.87791026	      1.60042493	    -16.24717816	    -13.67216286	    -10.13776239	     21.25084492	     47.48327952	      0.00000000	      0.00000000	     29.36218311	    -19.13132058	     -4.23496695	     91.87361998	     47.80298458	      0.00000000	      0.00000000
     45.14457143	     -3.61361475	     -4.24948155	     -1.05015939	      1.09647245	      0.91107036	      0.44869479	     28.63309587	     -0.45876221	    -14.94120174	     17.60325537	     17.60325537	      0.73933438	     -2.44500064	      4.36952334	     -3.52767044	     -6.26913691	    -13.49599280	     14.42868712	     14.42868712	     20.91358355	     -7.26663031	     -7.27153385	     -8.15740298	      7.44828530	      2.12312141	    -17.55626634	    -13.45376088	    -10.09830256	     20.89274447	     47.47463087	      0.00000000	      0.00000000	     29.56865625	    -18.95764010	     -4.58287922	     92.99992780	     47.85485485	      0.00000000	      0.00000000
     45.15571429	     -3.08551566	     -3.28934293	     -1.90433939	      1.10097481	      0.91098931	      0.45219204	     27.83818228	     -0.89303551	    -13.80674940	     18.49813394	     18.49813394	     -0.79661137	     -3.50125522	     -1.27187550	     -5.70848262	     -4.97336555	    -13.53938168	     13.40344753	     13.40344753	     21.89881239	     -7.59574895	     -2.77062351	     -8.42635768	      6.23504214	      2.47594775	    -18.86275409	    -13.31257144	    -10.19284986	     21.98125428	     47.37504257	      0.00000000	      0.00000000	     28.59719323	    -18.99965552	     -5.91916119	     95.90578501	     48.04270168	      0.00000000	      0.00000000
     45.16685714	     -2.25516031	     -1.98959055	     -3.33084949	      1.10638533	      0.91209100	      0.45660315	     26.96575664	     -1.55748142	    -12.04625187	     19.97809005	     19.97809005	     -0.94984310	     -3.97887987	     -3.93886110	     -8.48944622	     -3.13204932	    -14.13791145	     11.92276137	     11.92276137	     22.27071884	     -7.86218070	      1.40901292	     -8.91532301	      4.58584394	      3.74165050	    -19.76353236	    -13.01761119	    -10.13670248	     21.61273500	     47.35239052	      0.00000000	      0.00000000	     27.86149118	    -18.72753954	     -6.62640331	     97.80280556	     48.15579268	      0.00000000	      0.00000000
     45.17800000	     -1.34303325	     -0.37417728	     -5.17453872	      1.11235668	      0.91365937	      0.46178547	     26.37886143	     -2.51460268	     -9.81145595	     22.09342133	     22.09342133	     -0.11329813	     -4.07138719	     -5.13134869	    -11.26465305	     -0.87545947	    -15.46699679	     10.47466162	     10.47466162	     21.78171284	     -7.64058494	      3.76013337	     -9.27114055	      2.51426883	      5.26369518	    -20.44033629	    -12.71043180	    -10.12573786	     21.22208572	     47.35725418	      0.00000000	      0.00000000	     27.00943786	    -18.61317959	     -7.17765426	     98.81976507	     48.21343364	      0.00000000	      0.00000000
     45.18914286	     -0.27370137	      1.63971181	     -7.22718509	      1.11871014	      0.91669380	      0.46709929	     25.39084746	     -3.91105066	     -7.43551701	     23.47457747	     23.47457747	      0.35995019	     -3.55197158	     -7.40728878	    -13.72284675	      2.09899032	    -15.10529185	      9.83730494	      9.83730494	     25.20301037	     -8.82179723	     19.24921182	     -9.68739980	     -0.05081396	      6.16069065	    -20.23465047	    -12.53995650	    -10.41374335	     20.38200873	     47.41457038	      0.00000000	      0.00000000	     24.80769820	    -18.65489076	     -8.99473528	    101.48479442	     48.41872916	      0.00000000	      0.00000000
     45.20028571	      0.63150286	      3.18045540	     -9.13968119	      1.12426940	      0.91938496	      0.47267594	     24.69520764	     -4.93675275	     -5.30924255	     24.99053016	     24.99053016	      1.57764203	     -2.88912806	     -7.62844308	    -15.55936220	      4.28766919	    -15.88283454	      9.57720186	      9.57720186	     25.37649853	     -9.47197512	     25.16419172	     -9.87862218	     -2.11914702	      7.57375702	    -20.00017063	    -12.17386001	    -10.52249659	     19.43767090	     47.47578714	      0.00000000	      0.00000000	     23.31941638	    -18.40651013	     -9.79265057	    102.64807295	     48.52035616	      0.00000000	      0.00000000
     45.21142857	      1.28974410	      4.16297790	    -10.37352536	      1.12830980	      0.92172729	      0.47735571	     24.00414167	     -5.64299090	     -3.94369524	     26.09954787	     26.09954787	      2.85567723	     -2.27164696	     -7.37995055	    -16.54131338	      5.55551060	    -16.16094327	     10.20909445	     10.20909445	     24.29312125	    -10.51287619	     26.77504303	    -10.00099947	     -3.52252539	      8.40614714	    -19.57823255	    -11.90207794	    -10.63908319	     18.79765779	     47.53386119	      0.00000000	      0.00000000	     21.82416040	    -18.06744369	    -10.56201187	    103.78220342	     48.61245257	      0.00000000	      0.00000000
     45.22257143	      1.48422433	      4.14069308	    -10.37536754	      1.12965026	      0.92326257	      0.48035125	     23.30754733	     -5.63411761	     -3.85969629	     26.65064991	     26.65064991	      3.69742191	     -2.23752725	     -7.38130145	    -16.15648465	      5.05018541	    -15.90990795	     12.58221340	     12.58221340	     23.32573808	    -11.61356925	     26.33627081	    -10.17774940	     -3.66329074	      8.63502123	    -19.09066360	    -11.62976784	    -10.62365757	     18.75759940	     47.54235189	      0.00000000	      0.00000000	     21.05532649	    -17.54755789	    -10.62404053	    104.13696150	     48.62589973	      0.00000000	      0.00000000
